<svg width="168" height="52" viewBox="0 0 168 52" fill="none" xmlns="http://www.w3.org/2000/svg">
<rect x="16" y="16" width="152" height="36" rx="4" fill="black" fill-opacity="0.05"/>
<rect width="152" height="36" rx="4" fill="white"/>
<rect x="0.5" y="0.5" width="151" height="35" rx="3.5" stroke="black" stroke-opacity="0.08"/>
<rect x="8" y="8" width="20" height="20" rx="10" fill="black" fill-opacity="0.05"/>
<rect x="80" y="13.9995" width="64" height="8" rx="2" fill="black" fill-opacity="0.05"/>
<rect x="44" y="13.9995" width="32" height="8" rx="2" fill="black" fill-opacity="0.05"/>
<g filter="url(#filter0_d)">
<path fill-rule="evenodd" clip-rule="evenodd" d="M80.6727 13.8478C81.16 13.6624 82.1213 13.7759 82.3751 14.3404C82.5913 14.8215 82.777 15.6327 82.7872 15.4598C82.8116 15.0756 82.7628 14.2446 82.9263 13.8103C83.045 13.4937 83.2785 13.1959 83.6226 13.0907C83.9119 13.0012 84.252 12.9699 84.5525 13.0335C84.8702 13.1001 85.2042 13.3323 85.329 13.5531C85.6965 14.2019 85.7026 15.5306 85.7198 15.4598C85.7848 15.1766 85.7909 14.18 86.0071 13.8103C86.1502 13.5656 86.5116 13.3469 86.7045 13.3115C87.0029 13.2574 87.3704 13.2407 87.683 13.3032C87.9358 13.3542 88.2779 13.6614 88.3703 13.8103C88.5926 14.1685 88.7174 15.1807 88.755 15.5369C88.7712 15.6837 88.8301 15.1276 89.0524 14.7704C89.4646 14.105 90.9243 13.9759 90.9791 15.4359C91.0055 16.1169 90.9994 16.0857 90.9994 16.5439C90.9994 17.0812 90.9872 17.4061 90.9588 17.7956C90.9283 18.2111 90.841 19.1535 90.7141 19.6096C90.6269 19.9231 90.3375 20.6281 90.0513 21.0509C90.0513 21.0509 88.9611 22.3526 88.8423 22.9378C88.7235 23.5241 88.7631 23.5283 88.7388 23.9427C88.7154 24.3582 88.8616 24.9039 88.8616 24.9039C88.8616 24.9039 88.0485 25.0122 87.6089 24.9393C87.212 24.8747 86.7207 24.0646 86.5938 23.8167C86.4192 23.4751 86.0467 23.5408 85.9015 23.7928C85.6742 24.1916 85.1818 24.907 84.8357 24.9518C84.1566 25.0393 82.7496 24.983 81.6482 24.9726C81.6482 24.9726 81.836 23.9198 81.4178 23.5585C81.1082 23.2877 80.5753 22.742 80.2565 22.4546L79.412 21.4955C79.1247 21.1206 78.3948 20.5281 78.1502 19.4284C77.934 18.4537 77.9553 17.9757 78.1878 17.5852C78.4233 17.1885 78.8679 16.9719 79.0547 16.9344C79.2658 16.8906 79.7571 16.8938 79.9429 16.9989C80.1692 17.127 80.2606 17.1645 80.4382 17.4061C80.6717 17.7258 80.755 17.881 80.6545 17.5321C80.5773 17.2593 80.3276 16.9125 80.2139 16.522C80.1033 16.1461 79.8068 15.54 79.8282 14.9329C79.8363 14.7028 79.9327 14.13 80.6727 13.8478Z" fill="white"/>
<path fill-rule="evenodd" clip-rule="evenodd" d="M80.6727 13.8478C81.16 13.6624 82.1213 13.7759 82.3751 14.3404C82.5913 14.8215 82.777 15.6327 82.7872 15.4598C82.8116 15.0756 82.7628 14.2446 82.9263 13.8103C83.045 13.4937 83.2785 13.1959 83.6226 13.0907C83.9119 13.0012 84.252 12.9699 84.5525 13.0335C84.8702 13.1001 85.2042 13.3323 85.329 13.5531C85.6965 14.2019 85.7026 15.5306 85.7198 15.4598C85.7848 15.1766 85.7909 14.18 86.0071 13.8103C86.1502 13.5656 86.5116 13.3469 86.7045 13.3115C87.0029 13.2574 87.3704 13.2407 87.683 13.3032C87.9358 13.3542 88.2779 13.6614 88.3703 13.8103C88.5926 14.1685 88.7174 15.1807 88.755 15.5369C88.7712 15.6837 88.8301 15.1276 89.0524 14.7704C89.4646 14.105 90.9243 13.9759 90.9791 15.4359C91.0055 16.1169 90.9994 16.0857 90.9994 16.5439C90.9994 17.0812 90.9872 17.4061 90.9588 17.7956C90.9283 18.2111 90.841 19.1535 90.7141 19.6096C90.6269 19.9231 90.3375 20.6281 90.0513 21.0509C90.0513 21.0509 88.9611 22.3526 88.8423 22.9378C88.7235 23.5241 88.7631 23.5283 88.7388 23.9427C88.7154 24.3582 88.8616 24.9039 88.8616 24.9039C88.8616 24.9039 88.0485 25.0122 87.6089 24.9393C87.212 24.8747 86.7207 24.0646 86.5938 23.8167C86.4192 23.4751 86.0467 23.5408 85.9015 23.7928C85.6742 24.1916 85.1818 24.907 84.8357 24.9518C84.1566 25.0393 82.7496 24.983 81.6482 24.9726C81.6482 24.9726 81.836 23.9198 81.4178 23.5585C81.1082 23.2877 80.5753 22.742 80.2565 22.4546L79.412 21.4955C79.1247 21.1206 78.3948 20.5281 78.1502 19.4284C77.934 18.4537 77.9553 17.9757 78.1878 17.5852C78.4233 17.1885 78.8679 16.9719 79.0547 16.9344C79.2658 16.8906 79.7571 16.8938 79.9429 16.9989C80.1692 17.127 80.2606 17.1645 80.4382 17.4061C80.6717 17.7258 80.755 17.881 80.6545 17.5321C80.5773 17.2593 80.3276 16.9125 80.2139 16.522C80.1033 16.1461 79.8068 15.54 79.8282 14.9329C79.8363 14.7028 79.9327 14.13 80.6727 13.8478V13.8478Z" stroke="black" stroke-width="0.75" stroke-linejoin="round"/>
<path d="M87.7715 21.8645V18.2625" stroke="black" stroke-width="0.75" stroke-linecap="round"/>
<path d="M85.7255 21.8766L85.7092 18.26" stroke="black" stroke-width="0.75" stroke-linecap="round"/>
<path d="M83.6992 18.293L83.7205 21.8607" stroke="black" stroke-width="0.75" stroke-linecap="round"/>
</g>
<defs>
<filter id="filter0_d" x="75.625" y="12.625" width="17.75" height="16.75" filterUnits="userSpaceOnUse" color-interpolation-filters="sRGB">
<feFlood flood-opacity="0" result="BackgroundImageFix"/>
<feColorMatrix in="SourceAlpha" type="matrix" values="0 0 0 0 0 0 0 0 0 0 0 0 0 0 0 0 0 0 127 0" result="hardAlpha"/>
<feOffset dy="2"/>
<feGaussianBlur stdDeviation="1"/>
<feColorMatrix type="matrix" values="0 0 0 0 0 0 0 0 0 0 0 0 0 0 0 0 0 0 0.24 0"/>
<feBlend mode="normal" in2="BackgroundImageFix" result="effect1_dropShadow"/>
<feBlend mode="normal" in="SourceGraphic" in2="effect1_dropShadow" result="shape"/>
</filter>
</defs>
</svg>
